<?xml version="1.0" encoding="utf-8"?>
<!-- Generator: Adobe Illustrator 24.0.0, SVG Export Plug-In . SVG Version: 6.00 Build 0)  -->
<svg version="1.1" id="Layer_1" xmlns="http://www.w3.org/2000/svg" xmlns:xlink="http://www.w3.org/1999/xlink" x="0px" y="0px"
	 viewBox="0 0 1280 394" style="enable-background:new 0 0 1280 394;" xml:space="preserve">
<style type="text/css">
	.st0{fill:#00A388;}
	.st1{fill:none;}
	.st2{fill:#FFFFFF;}
</style>
<path class="st0" d="M246.5,293.5h-177c-9.66,0-17.5-7.84-17.5-17.5V78c0-9.66,7.84-17.5,17.5-17.5h177c9.66,0,17.5,7.84,17.5,17.5
	v198C264,285.66,256.16,293.5,246.5,293.5z"/>
<g>
	<path class="st1" d="M450.58,166.52c-6.09-3.66-13.17-5.5-21.23-5.5c-7.92,0-14.96,1.84-21.12,5.5c-6.16,3.67-11,8.73-14.52,15.18
		c-3.52,6.46-5.28,13.86-5.28,22.22c0,8.36,1.76,15.73,5.28,22.11c3.52,6.38,8.36,11.41,14.52,15.07c6.16,3.67,13.2,5.5,21.12,5.5
		c8.06,0,15.14-1.83,21.23-5.5c6.08-3.66,10.89-8.69,14.41-15.07c3.52-6.38,5.28-13.75,5.28-22.11c0-8.36-1.76-15.76-5.28-22.22
		C461.47,175.25,456.67,170.19,450.58,166.52z"/>
	<path class="st1" d="M1074.61,165.64c-5.43-3.52-11.96-5.28-19.58-5.28c-8.36,0-15.59,1.87-21.67,5.61
		c-6.09,3.74-10.71,8.91-13.86,15.51c-1.91,4-3.24,8.33-3.99,12.98h75.67c-0.59-5.23-1.93-10.04-4.04-14.41
		C1084.21,173.97,1080.03,169.16,1074.61,165.64z"/>
	<path class="st1" d="M599.08,166.63c-6.09-3.74-13.09-5.61-21.01-5.61c-7.63,0-14.56,1.87-20.79,5.61
		c-6.24,3.74-11.15,8.84-14.74,15.29c-3.6,6.46-5.39,13.79-5.39,22c0,8.07,1.79,15.33,5.39,21.78c3.59,6.46,8.5,11.55,14.74,15.29
		c6.23,3.74,13.16,5.61,20.79,5.61c7.92,0,14.92-1.87,21.01-5.61c6.08-3.74,10.92-8.83,14.52-15.29c3.59-6.45,5.39-13.71,5.39-21.78
		c0-8.21-1.8-15.54-5.39-22C610.01,175.47,605.17,170.37,599.08,166.63z"/>
	<path class="st2" d="M198.26,219.78c-5.01,5.2-11.02,9.33-17.87,12.28c-6.83,2.94-14.47,4.43-22.73,4.43
		c-8.26,0-15.9-1.49-22.73-4.44c-6.83-2.94-12.79-7.06-17.72-12.24c-4.96-5.21-8.89-11.44-11.67-18.53
		c-2.8-7.12-4.22-14.97-4.22-23.33c0-4.93,0.51-9.67,1.48-14.19c-6.82-6.55-13.29-13.58-19.38-21.09c-3.7-4.57-7.12-9.14-10.3-13.68
		c-1.77,3.28-3.38,6.68-4.79,10.22c-4.66,11.71-7.02,24.75-7.02,38.74c0,13.99,2.36,27.05,7.01,38.83
		c4.68,11.86,11.37,22.27,19.88,30.94c8.54,8.7,18.86,15.53,30.66,20.3c11.74,4.74,24.79,7.15,38.79,7.15
		c14.01,0,27.03-2.41,38.7-7.15c11.71-4.76,22.01-11.58,30.61-20.26c6.38-6.44,11.73-13.84,15.98-22.09
		c-14.98-1.43-29.36-3.97-43.1-7.64C199.33,218.63,198.8,219.22,198.26,219.78z"/>
	<path class="st2" d="M104.62,157.13c0.29-0.84,0.59-1.68,0.91-2.5c2.78-7.09,6.71-13.32,11.67-18.53
		c4.91-5.16,10.85-9.23,17.66-12.1c6.84-2.89,14.51-4.35,22.79-4.35c8.28,0,15.95,1.46,22.79,4.35c6.83,2.88,12.82,6.97,17.81,12.14
		c5,5.19,8.9,11.39,11.61,18.43c2.74,7.15,4.13,15.02,4.13,23.4c0,8.38-1.39,16.25-4.13,23.39c-1.58,4.1-3.57,7.91-5.94,11.41
		c12.87,3.32,26.77,5.76,41.77,7.1c0.44-1.02,0.89-2.03,1.3-3.07c4.65-11.79,7.01-24.85,7.01-38.83c0-13.99-2.36-27.02-7.02-38.74
		c-4.69-11.79-11.42-22.17-20.01-30.84l0,0c-8.6-8.68-18.9-15.49-30.61-20.26c-11.67-4.75-24.69-7.15-38.7-7.15
		c-14.01,0-27.06,2.4-38.79,7.15c-11.81,4.77-22.12,11.6-30.66,20.3c-4.42,4.5-8.33,9.47-11.74,14.84
		c3.58,5.26,7.49,10.56,11.78,15.84C93.06,145.03,98.51,151.1,104.62,157.13z"/>
	<path d="M460.81,150.57c-9.1-5.2-19.58-7.81-31.46-7.81c-11.74,0-22.19,2.61-31.35,7.81c-9.17,5.21-16.36,12.4-21.56,21.56
		c-5.21,9.17-7.81,19.77-7.81,31.79c0,11.88,2.45,22.41,7.37,31.57c4.91,9.17,11.66,16.36,20.24,21.56
		c8.58,5.21,18.44,7.81,29.59,7.81c10.26,0,19.32-2.53,27.17-7.59c7.17-4.62,12.91-10.86,17.27-18.67v10.64
		c0,9.68-1.84,17.89-5.5,24.64c-3.67,6.74-8.58,11.91-14.74,15.51c-6.16,3.59-12.98,5.39-20.46,5.39c-7.92,0-15-1.47-21.23-4.4
		c-6.24-2.94-11.41-6.97-15.51-12.1c-1.62-2.06-3.78-3.38-6.49-3.96c-2.72-0.59-5.25-0.08-7.59,1.54c-2.2,1.61-3.52,3.63-3.96,6.05
		c-0.44,2.42,0.29,4.73,2.2,6.93c6.01,7.77,13.53,13.75,22.55,17.93c9.02,4.18,18.95,6.27,29.81,6.27c11.88,0,22.4-2.75,31.57-8.25
		c9.16-5.5,16.31-12.98,21.45-22.44c5.13-9.46,7.7-20.05,7.7-31.79v-46.64c0-12.02-2.61-22.62-7.81-31.79
		C477.05,162.97,469.9,155.78,460.81,150.57z M464.99,226.03c-3.52,6.38-8.33,11.41-14.41,15.07c-6.09,3.67-13.17,5.5-21.23,5.5
		c-7.92,0-14.96-1.83-21.12-5.5c-6.16-3.66-11-8.69-14.52-15.07c-3.52-6.38-5.28-13.75-5.28-22.11c0-8.36,1.76-15.76,5.28-22.22
		c3.52-6.45,8.36-11.51,14.52-15.18c6.16-3.66,13.2-5.5,21.12-5.5c8.06,0,15.14,1.84,21.23,5.5c6.08,3.67,10.89,8.73,14.41,15.18
		c3.52,6.46,5.28,13.86,5.28,22.22C470.27,212.28,468.51,219.65,464.99,226.03z"/>
	<path d="M609.09,150.79c-9.1-5.35-19.44-8.03-31.02-8.03c-11.44,0-21.75,2.68-30.91,8.03c-9.17,5.36-16.43,12.62-21.78,21.78
		c-5.36,9.17-8.03,19.62-8.03,31.35c0,11.59,2.49,22,7.48,31.24c4.98,9.24,11.8,16.5,20.46,21.78c8.65,5.28,18.4,7.92,29.26,7.92
		c10.85,0,20.49-2.6,28.93-7.81c5.68-3.51,10.55-7.89,14.63-13.09v9.9c0,2.94,0.99,5.39,2.97,7.37c1.98,1.98,4.43,2.97,7.37,2.97
		c3.08,0,5.57-0.99,7.48-2.97c1.9-1.98,2.86-4.43,2.86-7.37v-49.94c0-11.58-2.68-22-8.03-31.24
		C625.41,163.44,618.18,156.15,609.09,150.79z M613.6,225.7c-3.6,6.46-8.44,11.55-14.52,15.29c-6.09,3.74-13.09,5.61-21.01,5.61
		c-7.63,0-14.56-1.87-20.79-5.61c-6.24-3.74-11.15-8.83-14.74-15.29c-3.6-6.45-5.39-13.71-5.39-21.78c0-8.21,1.79-15.54,5.39-22
		c3.59-6.45,8.5-11.55,14.74-15.29c6.23-3.74,13.16-5.61,20.79-5.61c7.92,0,14.92,1.87,21.01,5.61c6.08,3.74,10.92,8.84,14.52,15.29
		c3.59,6.46,5.39,13.79,5.39,22C618.99,211.99,617.19,219.25,613.6,225.7z"/>
	<path d="M758.47,149.03c-8.07-4.32-17.16-6.49-27.28-6.49c-9.68,0-18.41,2.09-26.18,6.27c-4.61,2.48-8.63,5.51-12.1,9.06v-3.89
		c0-3.08-0.96-5.57-2.86-7.48c-1.91-1.9-4.4-2.86-7.48-2.86s-5.58,0.96-7.48,2.86c-1.91,1.91-2.86,4.4-2.86,7.48v99.88
		c0,2.94,0.95,5.39,2.86,7.37c1.9,1.98,4.4,2.97,7.48,2.97s5.57-0.99,7.48-2.97c1.9-1.98,2.86-4.43,2.86-7.37v-63.14
		c0-5.57,1.54-10.56,4.62-14.96s7.22-7.92,12.43-10.56c5.2-2.64,11.11-3.96,17.71-3.96c6.89,0,13.09,1.36,18.59,4.07
		c5.5,2.72,9.82,6.82,12.98,12.32c3.15,5.5,4.73,12.51,4.73,21.01v55.22c0,2.94,0.99,5.39,2.97,7.37c1.98,1.98,4.43,2.97,7.37,2.97
		c2.93,0,5.39-0.99,7.37-2.97c1.98-1.98,2.97-4.43,2.97-7.37v-55.22c0-12.02-2.35-22.22-7.04-30.58
		C772.92,159.7,766.54,153.36,758.47,149.03z"/>
	<path d="M834.81,95.68c-3.67,0-6.86,1.29-9.57,3.85c-2.72,2.57-4.07,5.83-4.07,9.79c0,3.67,1.35,6.86,4.07,9.57
		c2.71,2.72,5.9,4.07,9.57,4.07c3.81,0,7.04-1.35,9.68-4.07c2.64-2.71,3.96-5.9,3.96-9.57c0-3.96-1.36-7.22-4.07-9.79
		C841.66,96.97,838.47,95.68,834.81,95.68z"/>
	<path d="M834.81,143.64c-3.08,0-5.58,0.96-7.48,2.86c-1.91,1.91-2.86,4.4-2.86,7.48v99.66c0,3.08,0.95,5.58,2.86,7.48
		c1.9,1.91,4.4,2.86,7.48,2.86s5.57-0.95,7.48-2.86c1.9-1.9,2.86-4.4,2.86-7.48v-99.66c0-3.08-0.96-5.57-2.86-7.48
		C840.38,144.6,837.89,143.64,834.81,143.64z"/>
	<path d="M968.57,245.06h-59.28l65.06-85.37c1.28-1.56,1.92-3.75,1.92-6.59c0-6.3-3.16-9.46-9.46-9.46h-77.22
		c-6.31,0-9.46,3.16-9.46,9.46c0,6.31,3.15,9.46,9.46,9.46h59.62l-65.56,85.36l0.1,0.08c-1.24,1.56-1.86,3.73-1.86,6.52
		c0,6.31,3.15,9.46,9.46,9.46h77.22c6.3,0,9.46-3.15,9.46-9.46C978.03,248.22,974.87,245.06,968.57,245.06z"/>
	<path d="M1084.4,150.35c-8.29-5.06-18.08-7.59-29.37-7.59c-11.44,0-21.6,2.61-30.47,7.81c-8.88,5.21-15.81,12.4-20.79,21.56
		c-4.99,9.17-7.48,19.77-7.48,31.79c0,11.88,2.64,22.41,7.92,31.57c5.28,9.17,12.61,16.36,22,21.56c9.38,5.21,20.09,7.81,32.12,7.81
		c6.75,0,13.86-1.28,21.34-3.85c7.48-2.56,13.64-5.83,18.48-9.79c2.34-1.76,3.44-3.85,3.3-6.27c-0.15-2.42-1.4-4.66-3.74-6.71
		c-1.76-1.46-3.82-2.16-6.16-2.09c-2.35,0.08-4.55,0.85-6.6,2.31c-3.08,2.35-7.08,4.4-11.99,6.16c-4.92,1.76-9.79,2.64-14.63,2.64
		c-8.51,0-16.03-1.87-22.55-5.61c-6.53-3.74-11.66-8.87-15.4-15.4c-2.65-4.63-4.35-9.73-5.12-15.29h85.31
		c2.78,0,5.06-0.84,6.82-2.53c1.76-1.68,2.64-3.85,2.64-6.49c0-11.58-2.2-21.81-6.6-30.69
		C1099.03,162.38,1092.68,155.41,1084.4,150.35z M1015.51,194.46c0.75-4.65,2.07-8.98,3.99-12.98c3.15-6.6,7.77-11.77,13.86-15.51
		c6.08-3.74,13.31-5.61,21.67-5.61c7.62,0,14.15,1.76,19.58,5.28c5.42,3.52,9.6,8.33,12.54,14.41c2.1,4.37,3.44,9.18,4.04,14.41
		H1015.51z"/>
	<path d="M1214.31,146.17c-4.11-2.56-10.2-3.85-18.26-3.85c-8.66,0-16.61,2.06-23.87,6.16c-5.19,2.94-9.62,6.64-13.31,11.07v-5.79
		c0-3.37-0.85-5.9-2.53-7.59c-1.69-1.68-4.22-2.53-7.59-2.53c-3.23,0-5.72,0.88-7.48,2.64c-1.76,1.76-2.64,4.26-2.64,7.48v100.1
		c0,3.38,0.88,5.91,2.64,7.59c1.76,1.69,4.25,2.53,7.48,2.53c3.37,0,5.9-0.88,7.59-2.64c1.68-1.76,2.53-4.25,2.53-7.48v-64.68
		c0-6.89,2.05-12.61,6.16-17.16c4.1-4.54,9.71-7.77,16.83-9.68c7.11-1.9,15.21-2.12,24.31-0.66c2.05,0.44,3.96,0.59,5.72,0.44
		c1.76-0.14,3.26-0.73,4.51-1.76c1.24-1.02,2.16-2.56,2.75-4.62C1220.03,151.93,1218.41,148.74,1214.31,146.17z"/>
	<path d="M354.33,146.17c-4.11-2.56-10.2-3.85-18.26-3.85c-8.66,0-16.61,2.06-23.87,6.16c-5.19,2.94-9.62,6.64-13.31,11.07v-5.79
		c0-3.37-0.85-5.9-2.53-7.59c-1.69-1.68-4.22-2.53-7.59-2.53c-3.23,0-5.72,0.88-7.48,2.64c-1.76,1.76-2.64,4.26-2.64,7.48v67.22v6
		v26.88c0,3.38,0.88,5.91,2.64,7.59c1.76,1.69,4.25,2.53,7.48,2.53c3.37,0,5.9-0.88,7.59-2.64c1.68-1.76,2.53-4.25,2.53-7.48v-64.68
		c0-6.89,2.05-12.61,6.16-17.16c4.1-4.54,9.71-7.77,16.83-9.68c7.11-1.9,15.21-2.12,24.31-0.66c2.05,0.44,3.96,0.59,5.72,0.44
		c1.76-0.14,3.26-0.73,4.51-1.76c1.24-1.02,2.16-2.56,2.75-4.62C360.05,151.93,358.44,148.74,354.33,146.17z"/>
</g>
</svg>
